<svg xmlns="http://www.w3.org/2000/svg" version="1.1" viewBox="-5.0 -10.0 110.0 135.0">
 <path fill="#f5b800" d="m50 33.371 13.305 12.195c-0.003907 0.039063-0.023438 0.070313-0.023438 0.10938v21.512h-4.6875v-17.188c0-0.41406-0.16406-0.8125-0.45703-1.1055s-0.69141-0.45703-1.1055-0.45703h-14.062c-0.86328 0-1.5625 0.69922-1.5625 1.5625v17.188h-4.6875v-21.516c0-0.039063-0.019531-0.070313-0.023438-0.10938zm34.375-9.9336v31.25c0 21.422-32.289 38.188-33.664 38.891-0.44531 0.23047-0.97656 0.23047-1.4219 0-1.375-0.70312-33.664-17.469-33.664-38.891v-31.25c0-0.77734 0.57422-1.4375 1.3438-1.5469 5.9062-0.83594 11.648-2.5625 17.039-5.1133 5.4648-2.5898 10.5-5.9961 14.93-10.109 0.59766-0.55859 1.5273-0.55859 2.125 0 4.4297 4.1133 9.4648 7.5195 14.93 10.109 5.3906 2.5508 11.133 4.2773 17.039 5.1133 0.76953 0.10938 1.3438 0.76953 1.3438 1.5469zm-14.57 23.848-18.75-17.188c-0.59766-0.54688-1.5117-0.54688-2.1094 0l-18.75 17.188c-0.63672 0.58203-0.67969 1.5703-0.097656 2.207 0.58203 0.63672 1.5703 0.67969 2.207 0.097656l1.2891-1.1797v20.34c0 0.41406 0.16406 0.8125 0.45703 1.1055s0.69141 0.45703 1.1055 0.45703h7.8125c0.41406 0 0.8125-0.16406 1.1055-0.45703s0.45703-0.69141 0.45703-1.1055v-17.188h10.938v17.188c0 0.41406 0.16406 0.8125 0.45703 1.1055s0.69141 0.45703 1.1055 0.45703h7.8125c0.41406 0 0.8125-0.16406 1.1055-0.45703s0.45703-0.69141 0.45703-1.1055v-20.34l1.2891 1.1797c0.63672 0.58203 1.625 0.53906 2.207-0.097656 0.58203-0.63672 0.53906-1.625-0.097656-2.207z"/>
</svg>